# xmcd
#
# Track frame offsets:
#	150
#	17954
#	31656
#	47039
#	69099
#	87669
#	105840
#	119759
#	139428
#	156836
#	176174
#	192863
#	206563
#	222917
#	235712
#	251917
#	262960
#	277676
#	290840
#	306837
#	325227
#
# Disc length: 4538 seconds
#
# Revision: 0
# Processed by: cddbd v1.5.2PL0 Copyright (c) Steve Scherf et al.
# Submitted via: EZCDAudioConverter 7.0.0.1
#
DISCID=3711b815
DTITLE=Nu Urban Traxx Volume 241 US
DYEAR=2017
DGENRE=blues
TTITLE0=Jay-Z ft. Damian Marley - Bam
TTITLE1=Baka Not Nice - Live Up To My Name
TTITLE2=Miguel ft. Travis Scott - Sky Walker
TTITLE3=Chris Brown ft. Yo Gotti, A Boogie Wit da Hoodie and Kodak Black - Pil
TTITLE3=ls and Automobiles
TTITLE4=Zoey Dollaz ft. Chris Brown - Post and Delete
TTITLE5=Fabolous ft. Chris Brown and Velous - Flipmode
TTITLE6=Childish Gambino - Terrified
TTITLE7=Boney James ft. Avery Sunshine - Honestly
TTITLE8=Gucci Mane ft. Migos - I Get The Bag
TTITLE9=2 Chainz ft. Travi$ Scott - 4AM
TTITLE10=Yung Bleu - Miss It
TTITLE11=Tyler, The Creator - See You Again
TTITLE12=Tank - When We
TTITLE13=Moneybagg Yo - Doin It
TTITLE14=Swift ft. Quavo - Show Me
TTITLE15=Ski Mask The Slump God - Catch Me Outside
TTITLE16=Ayo and Teo - Better Off Alone
TTITLE17=A$AP Ferg - Plain Jane
TTITLE18=G-Eazy ft. A$AP Rocky and Cardi B - No Limit
TTITLE19=112 - Dangerous Games
TTITLE20=Leela James - Hard For Me
EXTD=
EXTT0=
EXTT1=
EXTT2=
EXTT3=
EXTT4=
EXTT5=
EXTT6=
EXTT7=
EXTT8=
EXTT9=
EXTT10=
EXTT11=
EXTT12=
EXTT13=
EXTT14=
EXTT15=
EXTT16=
EXTT17=
EXTT18=
EXTT19=
EXTT20=
PLAYORDER=
